<?xml version="1.0" encoding="utf-8"?>
<!-- Generator: Adobe Illustrator 26.0.0, SVG Export Plug-In . SVG Version: 6.00 Build 0)  -->
<svg version="1.1" id="Layer_1" xmlns="http://www.w3.org/2000/svg" xmlns:xlink="http://www.w3.org/1999/xlink" x="0px" y="0px"
	 viewBox="0 0 1080 1080" style="enable-background:new 0 0 1080 1080;" xml:space="preserve">
<style type="text/css">
	.st0{fill:#00A8E7;}
</style>
<g>
	<path class="st0" d="M111.48,678.04c-12.3,0-24.61,0.29-36.9-0.06c-28.25-0.81-48.49-14.28-59.74-40.11
		c-8.39-19.27-8.36-39.21-0.19-58.62c8.56-20.34,24.56-31.94,45.88-36.55c4.86-1.05,9.8-1.37,14.75-1.37
		c23.25-0.03,46.5-0.01,69.74-0.01c0.75,0,1.5,0.04,2.25,0c1.49-0.07,2.17,0.55,2.16,2.1c-0.04,6.6-0.05,13.2,0.01,19.8
		c0.01,1.58-0.6,2.16-2.12,2.06c-1.04-0.07-2.1-0.01-3.15-0.01c-22.95,0-45.9-0.06-68.84,0.02c-19.92,0.07-35.61,12.05-40.69,31.11
		c-2.82,10.58-2.43,21.15,1.75,31.32c6.92,16.83,19.83,25.78,37.84,26.32c18.73,0.56,37.49,0.14,56.24,0.12
		c3.28,0,3.33-0.08,3.34-3.63c0.03-9.3,0.02-18.6,0-27.9c-0.01-3.95-0.04-4-3.92-4c-17.4-0.02-34.8-0.01-52.2-0.01
		c-5.7,0-5.7,0-5.7-5.72c0-3.3-0.01-6.6,0-9.9c0.02-4.96-0.43-4.46,4.7-4.49c0.3,0,0.6,0,0.9,0c24.9,0,49.8,0,74.69,0
		c0.6,0,1.2-0.01,1.8,0c3.89,0.04,3.92,0.04,3.93,3.93c0.01,23.85,0.01,47.7,0.01,71.55c0,3.94,0.55,4.07-4.25,4.06
		C139.68,678.03,125.58,678.04,111.48,678.04z"/>
	<path class="st0" d="M378.4,678.04c-16.95,0-33.9,0-50.85,0c-1.05,0-2.1-0.01-3.15-0.01c-1.2,0-2-0.39-1.99-1.8
		c0.02-6.75,0.01-13.5,0.01-20.25c0-1.37,0.78-1.81,2-1.8c1.2,0.01,2.4-0.01,3.6-0.01c31.65,0,63.3-0.01,94.96,0.02
		c2.87,0,5.7-0.19,8.49-0.79c8.79-1.89,13.63-8.73,13.25-18.66c-0.34-8.73-5.51-14.38-14.43-15.57c-2.81-0.37-5.68-0.53-8.52-0.53
		c-19.8-0.04-39.6-0.04-59.4-0.01c-6.2,0.01-12.27-0.71-18.07-3.03c-14.92-5.95-22.49-17.27-23.83-33.01c-0.38-4.5,0.03-9,1.14-13.4
		c3.7-14.62,13.6-22.78,27.74-26.45c4.38-1.13,8.88-1.42,13.39-1.42c31.2-0.02,62.4-0.01,93.61-0.01c0.75,0,1.5,0.03,2.25,0.01
		c1.42-0.04,2.23,0.45,2.22,2.05c-0.04,6.6-0.05,13.2,0.01,19.8c0.01,1.57-0.6,2.17-2.12,2.09c-1.05-0.06-2.1,0-3.15,0
		c-30.3,0-60.6,0.01-90.91-0.01c-2.71,0-5.39,0.1-8.03,0.79c-6.04,1.59-10.1,6.07-10.99,12.28c-0.34,2.39-0.34,4.8-0.01,7.18
		c1.02,7.18,6.27,11.97,14.13,12.83c1.93,0.21,3.89,0.16,5.84,0.16c20.25,0.01,40.5,0.03,60.75-0.01
		c5.13-0.01,10.19,0.57,15.13,1.88c13.56,3.58,22.18,11.99,24.91,25.98c1.45,7.44,1.61,14.88-0.02,22.32
		c-3.43,15.61-13.38,24.6-28.64,28.18c-4.41,1.04-8.91,1.18-13.41,1.19C409,678.05,393.7,678.04,378.4,678.04z"/>
	<path class="st0" d="M447.21,388.66c0-9.75-0.14-19.51,0.08-29.26c0.07-3.23-0.93-5-3.69-6.77
		c-23.05-14.73-38.58-35.24-46.01-61.62c-17.35-61.59,22.54-124.26,85.68-134.83c13.48-2.26,26.87-1.96,40.21,0.97
		c3.23,0.71,3.28,0.77,2.11,3.61c-2.61,6.38-5.37,12.7-7.89,19.11c-0.82,2.08-1.78,2.5-4.01,2.17
		c-44.51-6.59-85.4,23.36-92.25,67.85c-5.64,36.63,14.25,71.82,48.21,86.53c0.69,0.3,1.36,0.69,2.08,0.84
		c2.55,0.52,3.11,2.06,3.1,4.55c-0.12,16.05-0.06,32.11-0.06,48.16c0,5.94,0,5.94,5.96,5.94c6.17,0,6.17,0,6.17,6.15
		c0,6-0.07,12,0.04,18c0.04,2.05-0.46,2.93-2.73,2.91c-11.4-0.1-22.8-0.13-34.2,0.02c-2.69,0.04-2.83-1.23-2.82-3.27
		C447.23,409.37,447.21,399.01,447.21,388.66z"/>
	<path class="st0" d="M623.1,609.76c0-21,0-41.99,0-62.99c0-1.05,0.06-2.1-0.01-3.15c-0.12-1.81,0.84-2.38,2.46-2.31
		c0.9,0.04,1.8,0,2.7,0c37.34,0,74.68,0,112.02,0c5.85,0,4.96-0.33,5.01,5.09c0.04,4.65,0.04,9.3,0,13.95
		c-0.05,5.56,0.77,4.89-5.12,4.9c-17.84,0.03-35.69,0.01-53.54,0.01c-12,0-23.99-0.01-35.99,0.01c-3.48,0.01-3.54,0.05-3.55,3.34
		c-0.02,27.3-0.02,54.59,0,81.89c0,3.64,0.05,3.67,4.18,3.67c29.54,0.01,59.08,0,88.63,0c1.05,0,2.1,0.06,3.15-0.01
		c1.66-0.12,2.44,0.43,2.42,2.25c-0.07,6.45-0.07,12.9,0,19.35c0.02,1.78-0.68,2.43-2.38,2.3c-0.89-0.07-1.8-0.01-2.7-0.01
		c-37.34,0-74.68,0-112.02,0c-0.45,0-0.9,0-1.35,0c-3.87-0.05-3.91-0.05-3.91-3.94C623.1,652.65,623.1,631.2,623.1,609.76z"/>
	<path class="st0" d="M860,541.31c12.75,0,25.51-0.01,38.26,0c4.3,0,4.31,0.03,4.32,4.49c0.01,5.4,0.03,10.8-0.01,16.21
		c-0.02,3.16-0.07,3.23-3.23,3.23c-15,0.03-30.01,0.01-45.01,0.01c-8.25,0-16.51,0.08-24.76-0.01
		c-29.37-0.32-46.37,23.62-43.32,49.99c0.7,6.03,2.28,11.79,5.23,17.09c8.11,14.58,20.79,21.64,37.25,21.78
		c22.96,0.2,45.91,0.04,68.87,0.05c5.6,0,4.95-0.46,4.98,5.15c0.02,5.1,0.03,10.2,0,15.31c-0.02,3.3-0.07,3.4-3.08,3.4
		c-24.46,0.02-48.92,0.37-73.37-0.1c-27.65-0.53-50.94-17.71-59.89-43.92c-6.49-19.01-6.27-38.12,2.23-56.56
		c8.94-19.41,24.64-30.4,45.27-34.77c5.01-1.06,10.1-1.34,15.21-1.35C839.29,541.29,849.65,541.31,860,541.31z"/>
	<path class="st0" d="M240.75,678.01c-18.45,0-36.91,0-55.36,0c-1.05,0-2.1-0.04-3.15,0.01c-1.61,0.08-2.62-0.38-2.42-2.25
		c0.08-0.74,0.01-1.5,0.01-2.25c0-42.47,0-84.93,0-127.4c0-0.45-0.01-0.9,0-1.35c0.08-3.34,0.08-3.4,3.53-3.4
		c38.26-0.02,76.52-0.02,114.78,0c3.67,0,3.71,0.06,3.73,3.71c0.04,5.85-0.04,11.7,0.03,17.56c0.02,1.84-0.45,2.85-2.49,2.64
		c-1.04-0.11-2.1-0.02-3.15-0.02c-29.26,0-58.52-0.01-87.77,0.01c-5.24,0-4.91-0.64-4.91,4.74c0,26.41,0,52.82,0,79.23
		c0,5.44-0.32,4.93,4.78,4.93c29.41,0.01,58.82,0,88.22,0c1.05,0,2.11,0.08,3.15-0.01c2.05-0.17,2.52,0.86,2.5,2.7
		c-0.08,5.85-0.01,11.7-0.04,17.56c-0.02,3.54-0.06,3.59-3.81,3.59C279.16,678.02,259.95,678.01,240.75,678.01z"/>
	<path class="st0" d="M543.83,541.35c19.2,0,38.4,0,57.6,0c0.9,0,1.8-0.02,2.7,0c3.34,0.08,3.38,0.09,3.4,3.56
		c0.03,5.7,0.03,11.4,0,17.1c-0.02,3.16-0.07,3.22-3.18,3.23c-14.4,0.03-28.8,0.01-43.2,0.01c-1.05,0-2.1,0.05-3.15-0.01
		c-1.66-0.09-2.56,0.5-2.42,2.31c0.08,1.04,0.01,2.1,0.01,3.15c0,33.9,0,67.81,0,101.71c0,1.05-0.09,2.11,0.01,3.15
		c0.2,2.06-0.85,2.5-2.68,2.48c-6.15-0.07-12.3-0.11-18.45,0.02c-2.24,0.05-2.78-0.78-2.75-2.87c0.09-8.25,0.04-16.5,0.04-24.75
		c0-26.55,0-53.1,0-79.66c0-0.9-0.08-1.81,0.02-2.7c0.23-2.12-0.58-2.9-2.78-2.87c-6.9,0.11-13.8,0.04-20.7,0.04
		c-8.4,0-16.8,0.02-25.2-0.01c-3.25-0.01-3.3-0.06-3.32-3.1c-0.04-5.85-0.04-11.7,0-17.55c0.02-3.13,0.08-3.21,3.3-3.22
		c13.95-0.03,27.9-0.02,41.85-0.02C531.23,541.35,537.53,541.35,543.83,541.35z"/>
	<path class="st0" d="M598.88,305.35c-3.21,7.68-7.18,14.17-11.7,20.33c-7.99,10.88-17.68,19.96-29.17,27.03
		c-2.58,1.59-3.62,3.25-3.6,6.36c0.16,19.49,0.08,38.98,0.08,58.47c0,1.05-0.07,2.1,0.01,3.15c0.14,1.82-0.77,2.29-2.42,2.26
		c-4.05-0.07-8.09-0.02-12.14-0.02c-7.5,0-14.99,0.02-22.49-0.01c-3.35-0.01-3.39-0.07-3.4-3.51c-0.03-6.9,0.06-13.79-0.05-20.69
		c-0.03-2.14,0.63-2.97,2.82-2.85c2.69,0.15,5.39,0.07,8.09,0.03c3.22-0.05,3.26-0.07,3.3-3.16c0.05-4.05,0.01-8.1,0.01-12.14
		c0-12.89,0.07-25.79-0.06-38.68c-0.03-2.64,0.76-3.87,3.28-4.88c17.29-6.92,30.59-18.56,40.06-34.59c1.92-3.26,1.94-3.26,5.56-2.38
		C584.19,301.78,591.3,303.51,598.88,305.35z"/>
	<path class="st0" d="M962.88,618.74c0-6.16,0.02-12.44-0.01-18.72c-0.01-1.48,0.55-2.24,2.11-2.15c1.05,0.05,2.1,0.01,3.15,0.01
		c19.2,0,38.41,0,57.61,0c1.05,0,2.11-0.1,3.15,0.02c2.17,0.24,2.84-0.66,2.81-2.82c-0.11-7.65-0.04-15.3-0.04-22.96
		c0-9.15-0.02-18.31,0.01-27.46c0.01-3.23,0.07-3.3,3.17-3.32c5.7-0.05,11.4-0.04,17.1-0.01c3.78,0.02,3.8,0.05,3.8,4.05
		c0.01,28.51,0,57.02,0,85.53c0,3.75-0.06,7.5,0.02,11.25c0.04,1.75-0.62,2.38-2.35,2.36c-6.45-0.06-12.9-0.09-19.35,0.01
		c-2.1,0.03-2.46-0.93-2.44-2.72c0.07-6.3,0.04-12.6,0.02-18.91c-0.02-3.63-0.05-3.67-3.67-3.67c-19.95-0.02-39.91,0-59.86-0.03
		C966.49,619.2,964.83,619.53,962.88,618.74z"/>
	<path class="st0" d="M500.6,260.87c-0.31-7.81-0.35-15.62,0.03-23.43c4.2,0,8.4,0,12.6,0c3.3,0,6.6-0.03,9.9-0.01
		c1.67,0.01,2.5-0.75,2.47-2.43c-0.02-1.05,0.01-2.1,0.01-3.15c0-14.26,0-28.51,0-42.77c0-1.2,0.02-2.4,0.04-3.6
		c0.03-1.24,0.65-1.95,1.92-2.01c0.9-0.04,1.8-0.05,2.7-0.05c14.55,0,29.11,0,43.66,0c0.9,0,1.8,0.02,2.7,0.04
		c1.23,0.02,1.97,0.61,2.04,1.88c0.05,0.9,0.05,1.8,0.05,2.7c0,14.86,0,29.71,0,44.57c0,0.6-0.04,1.2,0,1.8
		c0.15,2.02-0.61,3.16-2.8,3.02c-0.9-0.06-1.8,0-2.7,0c-13.95,0-27.91-0.02-41.86,0.02c-1.61,0-3.32-0.47-4.81,0.6
		c-0.67,6.54-0.09,13.11-0.35,19.65c-0.05,1.35,0.82,3.01-0.9,4.02c-6.67,0-13.33,0-20,0.01
		C503.68,261.74,502.04,261.87,500.6,260.87z"/>
	<path class="st0" d="M945.8,609.75c0,21.13,0,42.27,0,63.4c0,1.05-0.06,2.1,0.01,3.15c0.11,1.73-0.64,2.38-2.37,2.37
		c-6.44-0.06-12.89-0.06-19.33,0c-1.7,0.02-2.51-0.56-2.37-2.32c0.07-0.89,0.01-1.8,0.01-2.7c0-42.42-0.01-84.84,0.01-127.25
		c0-5.4-0.85-5.07,5.01-5.08c5.1-0.01,10.19-0.03,15.29,0.01c3.69,0.02,3.73,0.06,3.74,3.68c0.02,14.24,0.01,28.48,0.01,42.72
		C945.8,595.06,945.8,602.41,945.8,609.75z"/>
	<path class="st0" d="M579.73,182.53c-0.52-2.21-0.23-4.45-0.24-6.68c-0.03-14.31-0.02-28.62,0-42.93c0-1.48,0.16-2.96,0.24-4.44
		c16.47,0,32.94,0,49.4,0c1.78,0,3.62-0.26,5.21,0.87c0.07,9.1,0.15,18.2,0.19,27.31c0.03,7.17,0.03,14.33-0.01,21.5
		c-0.01,1.47,0.32,2.99-0.36,4.41C616.02,182.56,597.88,182.55,579.73,182.53z"/>
	<path class="st0" d="M500.82,430.6c16.18,0,32.36,0,48.53,0c1.05,0,2.1,0.03,3.15,0.01c1.24-0.02,1.99,0.4,1.98,1.78
		c-0.02,5.84-0.02,11.69,0,17.53c0,1.35-0.66,1.85-1.93,1.81c-0.9-0.03-1.8,0-2.7,0c-32.66,0-65.31,0-97.97,0
		c-0.6,0-1.21-0.08-1.8,0.01c-2.53,0.39-2.97-0.95-2.92-3.12c0.11-4.94,0-9.89,0.05-14.83c0.03-3.11,0.08-3.18,3.27-3.19
		C467.27,430.59,484.05,430.6,500.82,430.6z"/>
	<path class="st0" d="M629.07,248.97c0-5.84,0.06-11.69-0.03-17.53c-0.03-2.1,0.25-3.25,2.86-3.23c12.14,0.13,24.27,0.1,36.41,0.02
		c2.25-0.02,2.77,0.87,2.76,2.93c-0.07,12.14-0.07,24.28,0,36.42c0.01,2.2-0.84,2.81-2.92,2.8c-12.14-0.07-24.27-0.08-36.41,0.01
		c-2.29,0.02-2.73-0.96-2.7-2.97C629.13,261.26,629.07,255.11,629.07,248.97z"/>
	<path class="st0" d="M258.96,618.59c-11.54,0-23.08,0.02-34.62-0.01c-3.21-0.01-3.26-0.07-3.29-3.15
		c-0.05-4.65,0.09-9.3-0.05-13.94c-0.07-2.33,0.7-3.08,3.06-3.04c8.99,0.13,17.99,0.05,26.98,0.05c14.09,0,28.18-0.01,42.27,0.01
		c3.48,0.01,3.52,0.06,3.55,3.36c0.04,4.5,0.04,8.99,0,13.49c-0.03,3.14-0.07,3.21-3.26,3.22
		C282.05,618.61,270.5,618.59,258.96,618.59z"/>
	<path class="st0" d="M702.05,618.59c-11.39,0-22.78,0.02-34.17-0.01c-3.47-0.01-3.51-0.07-3.54-3.39c-0.04-4.35-0.03-8.69,0-13.04
		c0.02-3.59,0.05-3.63,3.72-3.64c18.14-0.02,36.27-0.01,54.41-0.01c4.95,0,9.89,0.08,14.84-0.04c2.09-0.05,2.95,0.53,2.89,2.76
		c-0.14,4.79-0.15,9.6,0.01,14.39c0.08,2.39-0.77,3.05-3.08,3.03C725.43,618.54,713.74,618.59,702.05,618.59z"/>
	<path class="st0" d="M501.02,459.76c12.89,0,25.78-0.01,38.68,0.01c3.22,0.01,3.26,0.06,3.3,3.12c0.05,3.75-0.03,7.5,0.03,11.24
		c0.03,1.68-0.53,2.54-2.32,2.4c-0.89-0.07-1.8-0.01-2.7-0.01c-24.73,0-49.47,0-74.2,0c-0.9,0-1.8-0.05-2.7,0.01
		c-1.64,0.1-2.48-0.45-2.44-2.29c0.09-4.2,0.04-8.4,0.03-12.59c0-1.27,0.49-1.95,1.85-1.9c1.05,0.04,2.1,0,3.15,0
		C476.13,459.76,488.58,459.76,501.02,459.76z"/>
	<path class="st0" d="M579.73,182.53c18.15,0.01,36.29,0.03,54.44,0.04c7.35,0.07,14.69,0.13,22.04,0.2c3.97,0.04,4,0.04,4.02,3.87
		c0.03,6.3-0.07,12.6,0.04,18.9c0.04,2.33-0.72,3.11-3.09,3.06c-7.47-0.14-14.94-0.05-22.72-0.05c0-6.81,0-13.25,0-19.69
		c0-1.2-0.06-2.4,0-3.6c0.07-1.46-0.5-2.26-2.03-2.25c-0.9,0.01-1.8-0.02-2.7-0.02c-15,0-30,0-44.99,0c-0.75,0-1.51,0.07-2.25,0
		c-2.18-0.2-2.82,0.81-2.8,2.9c0.09,7.8,0.03,15.6,0.03,23.4c0,8.25-0.02,16.5,0.01,24.75c0.01,3.72,0.05,3.78,3.64,3.8
		c7.35,0.05,14.7,0.02,22.05,0.01c4.33,0,4.02-0.17,4.02,3.78c-0.01,7.65,0.02,15.3-0.01,22.95c-0.01,3.12-0.07,3.18-3.25,3.19
		c-7.95,0.03-15.9,0.03-23.85-0.01c-1.03-0.01-2.63,0.6-2.5-1.49c1.18,0.76,2.49,0.88,3.86,0.87c7.02-0.03,14.04,0.02,21.06-0.03
		c3.6-0.03,3.66-0.1,3.68-3.88c0.04-7.02,0.04-14.04,0-21.06c-0.02-3.73-0.08-3.79-3.74-3.82c-8.21-0.07-16.43-0.08-24.64-0.11
		c-14.08-0.05-28.17-0.11-42.25-0.16c-3.75-0.01-7.49-0.03-11.24-0.04c1.49-1.07,3.2-0.59,4.81-0.6
		c13.95-0.04,27.91-0.02,41.86-0.02c0.9,0,1.8-0.06,2.7,0c2.2,0.14,2.95-1,2.8-3.02c-0.04-0.6,0-1.2,0-1.8c0-14.86,0-29.71,0-44.57
		c0-0.9-0.01-1.8-0.05-2.7c-0.07-1.27-0.8-1.86-2.04-1.88c-0.9-0.02-1.8-0.04-2.7-0.04c-14.55,0-29.11,0-43.66,0
		c-0.9,0-1.8,0.01-2.7,0.05c-1.26,0.06-1.89,0.76-1.92,2.01c-0.03,1.2-0.04,2.4-0.04,3.6c0,14.26,0,28.51,0,42.77
		c0,1.05-0.03,2.1-0.01,3.15c0.03,1.69-0.8,2.44-2.47,2.43c-3.3-0.02-6.6,0.01-9.9,0.01c-4.2,0-8.4,0-12.6,0
		c0.3-1.68,1.63-0.95,2.5-0.96c5.99-0.06,11.98,0,17.97-0.05c3.42-0.03,3.5-0.09,3.51-3.51c0.03-15.12,0.01-30.25,0.02-45.37
		c0-1.05,0.01-2.1,0.02-3.14c0.01-1.09,0.56-1.62,1.66-1.61c1.05,0.01,2.1-0.02,3.14-0.02c14.97,0,29.94,0.01,44.91-0.01
		C576.15,182.76,577.94,182.61,579.73,182.53z"/>
	<path class="st0" d="M500.4,497.24c-9.43,0-18.86,0.02-28.29-0.01c-3.32-0.01-3.34-0.06-3.38-3.49c-0.03-2.4,0.03-4.79-0.01-7.19
		c-0.03-1.45,0.45-2.29,2.05-2.15c0.59,0.05,1.2,0.01,1.8,0.01c18.86,0,37.72-0.01,56.59,0c3.79,0,3.8,0.03,3.83,3.94
		c0.01,1.8,0.02,3.59,0,5.39c-0.05,3.43-0.06,3.47-3.38,3.49c-7.63,0.03-15.27,0.01-22.9,0.01
		C504.59,497.24,502.5,497.24,500.4,497.24z"/>
	<path class="st0" d="M580.04,238.24c8.21,0.03,16.43,0.04,24.64,0.11c3.66,0.03,3.72,0.09,3.74,3.82c0.04,7.02,0.04,14.04,0,21.06
		c-0.02,3.79-0.08,3.86-3.68,3.88c-7.02,0.05-14.04,0-21.06,0.03c-1.37,0.01-2.68-0.11-3.86-0.87
		C579.64,256.93,579.21,247.58,580.04,238.24z"/>
	<path class="st0" d="M619.1,209.15c0,3.44-0.06,6.88,0.03,10.31c0.05,1.81-0.4,2.74-2.47,2.71c-7.02-0.09-14.04-0.07-21.07-0.02
		c-1.68,0.01-2.41-0.53-2.4-2.3c0.06-7.02,0.07-14.05-0.01-21.07c-0.02-2.03,0.86-2.54,2.7-2.52c6.87,0.06,13.75,0.07,20.62,0
		c1.9-0.02,2.69,0.62,2.63,2.59C619.02,202.27,619.1,205.71,619.1,209.15z"/>
	<path class="st0" d="M1055.74,654.96c0,7.5-0.02,14.54,0.02,21.57c0.01,1.55-0.63,2.12-2.14,2.12c-6.6-0.03-13.19-0.04-19.79,0
		c-1.64,0.01-2-0.87-1.99-2.27c0.03-6.45,0.02-12.9,0-19.34c0-1.21,0.33-2.06,1.71-2.07
		C1040.87,654.96,1048.19,654.96,1055.74,654.96z"/>
	<path class="st0" d="M608.68,293.32c-2.07-0.23-5.29,1.11-6.92-0.5c-1.81-1.79-0.51-5.1-0.65-7.73c-0.11-2.09,0.03-4.19-0.03-6.29
		c-0.04-1.47,0.46-2.19,2.05-2.17c4.19,0.06,8.39,0.04,12.58,0.01c1.25-0.01,1.99,0.41,1.99,1.79c-0.01,4.34-0.02,8.69,0.01,13.03
		c0.01,1.32-0.52,1.9-1.84,1.87C613.62,293.29,611.37,293.32,608.68,293.32z"/>
	<path class="st0" d="M634.35,129.36c-1.6-1.13-3.43-0.87-5.21-0.87c-16.47-0.01-32.94,0-49.4,0c0.37-1.25,1.43-0.82,2.22-0.82
		c16.58-0.03,33.16-0.03,49.74,0.01C632.78,127.68,634.69,126.88,634.35,129.36z"/>
	<path class="st0" d="M500.6,260.87c1.44,1.01,3.09,0.87,4.72,0.87c6.67-0.01,13.33-0.01,20-0.01c-7.74,0.75-15.49,0.13-23.24,0.31
		C501.32,262.04,500.55,261.94,500.6,260.87z"/>
</g>
</svg>
